<svg width="80" height="80" viewBox="0 0 80 80" fill="none" xmlns="http://www.w3.org/2000/svg">
<g clip-path="url(#clip0_104_11)">
<path d="M66.7188 0H13.2812C5.94622 0 0 5.94622 0 13.2812V66.7188C0 74.0538 5.94622 80 13.2812 80H66.7188C74.0538 80 80 74.0538 80 66.7188V13.2812C80 5.94622 74.0538 0 66.7188 0Z" fill="#FF5722"/>
<path d="M40.6589 8.65882C40.6589 8.29496 40.3639 8 40 8C39.6362 8 39.3412 8.29496 39.3412 8.65882V11.8588C39.3412 12.2227 39.6362 12.5176 40 12.5176C40.3639 12.5176 40.6589 12.2227 40.6589 11.8588V8.65882Z" fill="white"/>
<path d="M56.2412 13.1872C56.4231 12.8721 56.3152 12.4692 56.0001 12.2872C55.685 12.1053 55.282 12.2133 55.1001 12.5284L53.5001 15.2997C53.3182 15.6148 53.4261 16.0177 53.7412 16.1996C54.0563 16.3816 54.4593 16.2736 54.6412 15.9585L56.2412 13.1872Z" fill="white"/>
<path d="M67.4717 24.8998C67.7868 24.7179 67.8947 24.315 67.7128 23.9999C67.5309 23.6848 67.1279 23.5768 66.8128 23.7587L64.0416 25.3587C63.7264 25.5407 63.6185 25.9436 63.8004 26.2587C63.9823 26.5738 64.3853 26.6818 64.7004 26.4998L67.4717 24.8998Z" fill="white"/>
<path d="M71.3412 40.6588C71.705 40.6588 72 40.3638 72 39.9999C72 39.6361 71.705 39.3411 71.3412 39.3411H68.1412C67.7773 39.3411 67.4824 39.6361 67.4824 39.9999C67.4824 40.3638 67.7773 40.6588 68.1412 40.6588H71.3412Z" fill="white"/>
<path d="M66.8128 56.241C67.1279 56.423 67.5308 56.315 67.7128 55.9999C67.8947 55.6848 67.7867 55.2818 67.4716 55.0999L64.7003 53.4999C64.3852 53.318 63.9823 53.4259 63.8004 53.7411C63.6184 54.0562 63.7264 54.4591 64.0415 54.641L66.8128 56.241Z" fill="white"/>
<path d="M55.1 67.4716C55.2819 67.7867 55.6848 67.8946 55.9999 67.7127C56.315 67.5308 56.423 67.1279 56.2411 66.8127L54.6411 64.0415C54.4592 63.7264 54.0562 63.6184 53.7411 63.8003C53.426 63.9823 53.318 64.3852 53.5 64.7003L55.1 67.4716Z" fill="white"/>
<path d="M39.3411 71.3412C39.3411 71.705 39.6361 72 40 72C40.3638 72 40.6588 71.705 40.6588 71.3412V68.1412C40.6588 67.7773 40.3638 67.4824 40 67.4824C39.6361 67.4824 39.3411 67.7773 39.3411 68.1412V71.3412Z" fill="white"/>
<path d="M23.7589 66.8128C23.577 67.1279 23.6849 67.5308 24.0001 67.7128C24.3152 67.8947 24.7181 67.7867 24.9 67.4716L26.5 64.7003C26.682 64.3852 26.574 63.9823 26.2589 63.8004C25.9438 63.6184 25.5408 63.7264 25.3589 64.0415L23.7589 66.8128Z" fill="white"/>
<path d="M12.5283 55.0999C12.2132 55.2819 12.1052 55.6848 12.2872 55.9999C12.4691 56.315 12.872 56.423 13.1871 56.2411L15.9584 54.6411C16.2735 54.4591 16.3815 54.0562 16.1996 53.7411C16.0176 53.426 15.6147 53.318 15.2996 53.4999L12.5283 55.0999Z" fill="white"/>
<path d="M8.65882 39.3412C8.29497 39.3412 8 39.6362 8 40.0001C8 40.3639 8.29497 40.6589 8.65882 40.6589H11.8588C12.2227 40.6589 12.5176 40.3639 12.5176 40.0001C12.5176 39.6362 12.2227 39.3412 11.8588 39.3412H8.65882Z" fill="white"/>
<path d="M13.1872 23.7588C12.8721 23.5768 12.4692 23.6848 12.2872 23.9999C12.1053 24.315 12.2133 24.7179 12.5284 24.8999L15.2997 26.4999C15.6148 26.6818 16.0177 26.5738 16.1996 26.2587C16.3816 25.9436 16.2736 25.5407 15.9585 25.3588L13.1872 23.7588Z" fill="white"/>
<path d="M24.9 12.5284C24.7181 12.2133 24.3152 12.1053 24.0001 12.2872C23.685 12.4692 23.577 12.8721 23.7589 13.1872L25.3589 15.9585C25.5408 16.2736 25.9438 16.3815 26.2589 16.1996C26.574 16.0177 26.682 15.6148 26.5 15.2996L24.9 12.5284Z" fill="white"/>
<path d="M30.4 36.8696L38.4 43.2L52.8 32" stroke="white" stroke-width="2" stroke-linecap="round"/>
</g>
<defs>
<radialGradient id="paint0_radial_104_11" cx="0" cy="0" r="1" gradientUnits="userSpaceOnUse" gradientTransform="translate(4000 2800) scale(6000)">
<stop stop-color="#FFD6B8"/>
<stop offset="0.45" stop-color="#FF7A7A"/>
<stop offset="1" stop-color="#FF3B6E"/>
</radialGradient>
<clipPath id="clip0_104_11">
<rect width="80" height="80" fill="white"/>
</clipPath>
</defs>
</svg>
