<svg viewBox="0 0 55 55" xmlns="http://www.w3.org/2000/svg">
  <g clip-path="url(#clip0_101_2)">
    <path d="M40.801 11.922C39.023 12.577 37.08 12.829 35.106 12.592L30.036 11.983L31.748 8.09899C30.32 7.82799 28.848 7.67999 27.34 7.67999C14.361 7.67999 3.84 18.201 3.84 31.18C3.84 44.159 14.361 54.68 27.34 54.68C40.319 54.68 50.84 44.159 50.84 31.18C50.84 23.21 46.869 16.171 40.801 11.922Z" fill="inherit"/>
    <path d="M49.84 0.696993L44.77 0.0879933C39.416 -0.555007 34.271 2.37699 32.096 7.31099L30.036 11.983L35.106 12.592C40.46 13.235 45.605 10.303 47.78 5.36899L49.84 0.696993Z" fill="inherit"/>
    <line x1="27" y1="19" x2="27" y2="32" stroke="white" stroke-width="4" stroke-linecap="round"/>
    <line x1="27.8262" y1="32.887" x2="33.7046" y2="38.3132" stroke="white" stroke-width="4" stroke-linecap="round"/>
  </g>
  <defs>
    <clipPath id="clip0_101_2">
      <rect width="54.68" height="54.68" fill="white"/>
    </clipPath>
  </defs>
</svg>